# xmcd
#
# Track frame offsets: 
#        150
#        11948
#        31004
#        46656
#        58916
#        72717
#        92416
#        108291
#        122248
#        135984
#        148694
#        163932
#        183081
#        202698
#        209730
#        226352
#        240520
#        242878
#        252770
#        265590
#        275917
#        286254
#        292354
#        296864
#        305758
#
# Disc length: 4278 seconds
#
# Revision: 1
# Processed by: cddbd v1.5.2PL0 Copyright (c) Steve Scherf et al.
# Submitted via: ExactAudioCopyFreeDBPlugin 1.0
#
DISCID=8610b419
DTITLE=Various Artist - Hawai'i - Under The Rainbow
DYEAR=2006
DGENRE=South Sea
TTITLE0=Pacific Ocean
TTITLE1=Hālau O Keaunui - Chant-Hula (traditiona): Part 1: Keaunui Cha
TTITLE1=nt - Part 2: He Pomai'kai - Part 3: Ho'opuka - Pōpuna
TTITLE2=George Kuo - Aloha Chant (Pilahi Paki)
TTITLE3=The 'Ohana - Ka Uluwehi O Ke Kai (Edith K. Kanaka'ole)
TTITLE4=George Kuo, William T. Greig - Hi'ilawe (traditional, might be
TTITLE4=written by the father of Sam Lia)
TTITLE5=The 'Ohana - Pauoa Liko Ka Lehua
TTITLE6=George Kuo - 'Ōpihi Moemoe
TTITLE7=The 'Ohana - Henehene Kou'Aka
TTITLE8=George Kuo - Slack Key Hula
TTITLE9=The 'Ohana - E Ku'u Lei (traditional)
TTITLE10=The 'Ohana - Goodnight Leilani E
TTITLE11=Gordon Mark - E Ku'u Morning Dew
TTITLE12=Hawai'i Youth Opera Chorus - E Nānā Kākou I Nā Manu
TTITLE13=KoAloha - Kani Kī Hō'alu
TTITLE14=KoAloha - A Dream Called Hawaii
TTITLE15=Gordon Mark - Makalapua
TTITLE16=Beach Of Waikīkī
TTITLE17=Ho'oheno - Hawaiian Hospitality
TTITLE18=Ho'oheno - Puamana
TTITLE19=Ho'oheno - Nalani
TTITLE20=Ho'oheno - Nani
TTITLE21=Ho'oheno - Across the Sea
TTITLE22=Waves (sound ambience)
TTITLE23=Hālau O Keaunui - Nā 'Oli O Kama Kani A Me Nā Hula O Ke Ānuen
TTITLE23=ue (traditional)
TTITLE24=Gordon Mark - Ku'u Ipo I Ka He'e Pu'e One
EXTD=YEAR: 2006
EXTT0=
EXTT1=
EXTT2=
EXTT3=
EXTT4=
EXTT5=
EXTT6=
EXTT7=
EXTT8=
EXTT9=
EXTT10=
EXTT11=
EXTT12=
EXTT13=
EXTT14=
EXTT15=
EXTT16=
EXTT17=
EXTT18=
EXTT19=
EXTT20=
EXTT21=
EXTT22=
EXTT23=
EXTT24=
PLAYORDER=
